<?xml version="1.0" encoding="utf-8"?>
<!-- Generator: Adobe Illustrator 23.0.3, SVG Export Plug-In . SVG Version: 6.00 Build 0)  -->
<svg version="1.1" id="Capa_1" xmlns="http://www.w3.org/2000/svg" xmlns:xlink="http://www.w3.org/1999/xlink" x="0px" y="0px"
	 viewBox="0 0 512 512" style="enable-background:new 0 0 512 512;" xml:space="preserve">
<style type="text/css">
	.st0{fill:#007DD0;}
</style>
<path class="st0" d="M193.5,108.8H20.7c-4.1,0-7.4-3.3-7.4-7.4c0-4.1,3.3-7.4,7.4-7.4h158v-75c0-4.1,3.3-7.4,7.4-7.4
	s7.4,3.3,7.4,7.4V108.8z"/>
<path class="st0" d="M492.9,108.8H224.1V18.9c0-4.1,3.3-7.4,7.4-7.4c4.1,0,7.4,3.3,7.4,7.4v75h253.9c4.1,0,7.4,3.3,7.4,7.4
	C500.4,105.4,497,108.8,492.9,108.8z"/>
<path class="st0" d="M492.3,357h-67.7V160.5h67.7c4.1,0,7.4,3.3,7.4,7.4s-3.3,7.4-7.4,7.4h-52.8v166.7h52.8c4.1,0,7.4,3.3,7.4,7.4
	S496.4,357,492.3,357z"/>
<path class="st0" d="M140.6,314.8c-4.1,0-7.4-3.3-7.4-7.4V160.5l255.9-0.4c0,0,0,0,0,0c4.1,0,7.4,3.3,7.4,7.4c0,4.1-3.3,7.5-7.4,7.5
	l-241,0.4v132C148,311.5,144.7,314.8,140.6,314.8z"/>
<path class="st0" d="M396.8,354.1H133v-52.9c0-4.1,3.3-7.4,7.4-7.4c4.1,0,7.4,3.3,7.4,7.4v38.1h234.1V169c0-4.1,3.3-7.4,7.4-7.4
	s7.4,3.3,7.4,7.4V354.1z"/>
<path class="st0" d="M102.5,351.1H19.6c-4.1,0-7.4-3.3-7.4-7.4c0-4.1,3.3-7.4,7.4-7.4h68V175.4h-69c-4.1,0-7.4-3.3-7.4-7.4
	s3.3-7.4,7.4-7.4h83.9V351.1z"/>
<path class="st0" d="M234,498.6c-4.1,0-7.4-3.3-7.4-7.4v-68.6h-209c-4.1,0-7.4-3.3-7.4-7.4c0-4.1,3.3-7.4,7.4-7.4h223.9v83.5
	C241.5,495.2,238.1,498.6,234,498.6z"/>
<path class="st0" d="M286.9,498.6c-4.1,0-7.4-3.3-7.4-7.4v-85.3l213.4-0.2c0,0,0,0,0,0c4.1,0,7.4,3.3,7.4,7.4c0,4.1-3.3,7.5-7.4,7.5
	l-198.6,0.2v70.4C294.4,495.2,291,498.6,286.9,498.6z"/>
</svg>
