<?xml version="1.0" encoding="utf-8"?>
<!-- Generator: Adobe Illustrator 23.0.3, SVG Export Plug-In . SVG Version: 6.00 Build 0)  -->
<svg version="1.1" id="Layer_1" xmlns="http://www.w3.org/2000/svg" xmlns:xlink="http://www.w3.org/1999/xlink" x="0px" y="0px"
	 viewBox="0 0 64 64" style="enable-background:new 0 0 64 64;" xml:space="preserve">
<style type="text/css">
	.st0{fill:#007DD0;}
</style>
<g id="Waves">
	<path class="st0" d="M16.5,24.2c5.3,0,10.7-1.8,16-5.5c9.1-6.2,20.5-6.2,29.9,0c0.5,0.3,1.1,0.2,1.4-0.3s0.2-1.1-0.3-1.4
		c-10-6.6-22.4-6.6-32.1,0c-10,6.8-19.8,6.8-29.9,0c-0.5-0.3-1.1-0.2-1.4,0.3s-0.2,1.1,0.3,1.4C5.9,22.3,11.2,24.2,16.5,24.2z"/>
	<path class="st0" d="M63.5,30.9c-10-6.6-22.4-6.6-32.1,0c-10,6.8-19.8,6.8-29.9,0c-0.5-0.3-1.1-0.2-1.4,0.3s-0.2,1.1,0.3,1.4
		c5.4,3.7,10.7,5.5,16.1,5.5c5.3,0,10.7-1.8,16-5.5c9.1-6.2,20.5-6.2,29.9,0c0.5,0.3,1.1,0.2,1.4-0.3C64.1,31.8,64,31.2,63.5,30.9z"
		/>
	<path class="st0" d="M63.5,44.8c-10-6.6-22.4-6.6-32.1,0c-10,6.8-19.8,6.8-29.9,0c-0.5-0.3-1.1-0.2-1.4,0.3s-0.2,1.1,0.3,1.4
		C5.9,50.2,11.2,52,16.5,52s10.7-1.8,16-5.5c9.1-6.2,20.5-6.2,29.9,0c0.5,0.3,1.1,0.2,1.4-0.3C64.1,45.7,64,45.1,63.5,44.8z"/>
</g>
</svg>
