<?xml version="1.0" encoding="utf-8"?>
<!-- Generator: Adobe Illustrator 23.0.3, SVG Export Plug-In . SVG Version: 6.00 Build 0)  -->
<svg version="1.1" id="Layer_1" xmlns="http://www.w3.org/2000/svg" xmlns:xlink="http://www.w3.org/1999/xlink" x="0px" y="0px"
	 viewBox="0 0 512 512" style="enable-background:new 0 0 512 512;" xml:space="preserve">
<style type="text/css">
	.st0{fill:#467CCB;}
</style>
<path class="st0" d="M68.1,36.2c-2.4-0.5-4.8,1.1-5.3,3.6L34.9,183.9c-0.5,2.4,1.1,4.8,3.6,5.3l311.4,60.3c2.4,0.5,4.8-1.1,5.3-3.6
	l27.9-144.2c0.5-2.4-1.1-4.8-3.6-5.3L68.1,36.2z M347.5,261.8L36.2,201.6c-9.3-1.8-15.4-10.8-13.6-20.1L50.5,37.4
	c1.8-9.3,10.8-15.4,20.1-13.6L382,84.1c9.3,1.8,15.4,10.8,13.6,20.1l-27.9,144.2C365.8,257.5,356.8,263.6,347.5,261.8z"/>
<path class="st0" d="M455.7,241.1l-59.9-11.6l2.4-12.2l59.9,11.6c2.4,0.5,4.7-1.1,5.2-3.5l13.4-69c0.5-2.4-1.1-4.7-3.5-5.2
	l-59.9-11.6l2.4-12.2l59.9,11.6c9.2,1.8,15.2,10.6,13.4,19.8l-13.4,69C473.8,236.9,464.9,242.9,455.7,241.1z"/>
<path class="st0" d="M75.8,478L75.8,478c-2.3-2.6-2.2-6.5,0.4-8.8l111.3-100.9c6.2-5.6,8-14.7,4.2-22.3l-47-95.7
	c-1.5-3.1-0.2-6.8,2.9-8.4c3.1-1.5,6.8-0.2,8.4,2.9l51.2,104c3.7,7.5,2,16.6-4.2,22.3L84.6,478.4C82.1,480.8,78.2,480.6,75.8,478z"
	/>
</svg>
