<?xml version="1.0" encoding="utf-8"?>
<!-- Generator: Adobe Illustrator 23.0.3, SVG Export Plug-In . SVG Version: 6.00 Build 0)  -->
<svg version="1.1" id="Layer_1" xmlns="http://www.w3.org/2000/svg" xmlns:xlink="http://www.w3.org/1999/xlink" x="0px" y="0px"
	 viewBox="0 0 512 512" style="enable-background:new 0 0 512 512;" xml:space="preserve">
<style type="text/css">
	.st0{fill-rule:evenodd;clip-rule:evenodd;fill:#218DD4;}
</style>
<path class="st0" d="M455.1,276.3h-11.9V135.4c0-4.7-2.7-8.9-6.5-10.2L256.1,62.8c-7.2-2.5-14.8-2.5-21.9,0L55.5,125.1
	c-3.8,1.3-6.5,5.5-6.5,10.2v299.9H37.2V135.3c0-10.9,6.2-20.7,15-23.7l178.7-62.3c9.4-3.3,19.2-3.3,28.6,0L440,111.6
	c8.9,3.1,15,12.8,15,23.8V276.3z"/>
<path class="st0" d="M457.5,328.4h-43.7c-4,0-7.3,3-7.3,6.7v100.2H421v-40.1h36.4c20.1,0,36.4-15,36.4-33.4
	C493.9,343.3,477.6,328.4,457.5,328.4 M457.5,381.8H421v-40.1h36.4c12.1,0,21.9,9,21.9,20C479.4,372.8,469.5,381.8,457.5,381.8"/>
</svg>
