<?xml version="1.0" encoding="utf-8"?>
<!-- Generator: Adobe Illustrator 23.0.3, SVG Export Plug-In . SVG Version: 6.00 Build 0)  -->
<svg version="1.1" id="Слой_1" xmlns="http://www.w3.org/2000/svg" xmlns:xlink="http://www.w3.org/1999/xlink" x="0px" y="0px"
	 viewBox="0 0 512 512" style="enable-background:new 0 0 512 512;" xml:space="preserve">
<style type="text/css">
	.st0{fill:#267ABF;}
</style>
<path class="st0" d="M292.7,373.6c3.2-3.1,3.2-8.1,0-11.2c-3.2-3.1-8.3-3.1-11.5,0L267.2,376v-46.2c0,0,0-62.7,0-87.2
	c0-4.4-3.6-7.9-8.1-7.9c-4.5,0-8.1,3.5-8.1,7.9v68.1l-18.9-19.3c-3.2-3.1-8.3-3.1-11.5,0c-3.2,3.1-3.2,8.1,0,11.2L251,333v162.7
	c0,4.4,3.6,7.9,8.1,7.9s8.1-3.5,8.1-7.9v-97.4L292.7,373.6z"/>
<path class="st0" d="M379.6,160.5c2.2-9.5,3.3-19.3,3.3-29.1C383,61.3,326.3,4.2,256.7,4.2s-126.3,57-126.3,127.1
	c0,9.8,1.1,19.6,3.3,29.1c-22.9,28.4-35.5,63.9-35.5,100.6c0,36.7,12.7,72.5,35.7,100.8c22.7,27.9,54.4,47.5,89.3,55.1
	c4.3,0.9,8.5-1.8,9.5-6.1c0.9-4.3-1.8-8.6-6.1-9.5c-65.1-14.1-112.4-73.1-112.4-140.2c0-34.3,12.2-67.4,34.3-93.4
	c1.7-2,2.3-4.7,1.6-7.3c-2.5-9.4-3.8-19.2-3.8-29.1c0-61.3,49.5-111.1,110.4-111.1s110.4,49.8,110.4,111.1c0,9.8-1.3,19.6-3.8,29.1
	c-0.7,2.6-0.1,5.3,1.6,7.3c22.1,26,34.3,59.1,34.3,93.4c0,67.1-47.3,126.1-112.4,140.2c-4.3,0.9-7,5.2-6.1,9.5
	c0.8,3.8,4.1,6.3,7.8,6.3c0.6,0,1.1-0.1,1.7-0.2c34.9-7.6,66.6-27.1,89.3-55.1c23-28.3,35.7-64.2,35.7-100.8
	C415.1,224.4,402.6,188.9,379.6,160.5z"/>
</svg>
