<?xml version="1.0" encoding="utf-8"?>
<!-- Generator: Adobe Illustrator 23.0.3, SVG Export Plug-In . SVG Version: 6.00 Build 0)  -->
<svg version="1.1" id="Слой_1" xmlns="http://www.w3.org/2000/svg" xmlns:xlink="http://www.w3.org/1999/xlink" x="0px" y="0px"
	 viewBox="0 0 512 512" style="enable-background:new 0 0 512 512;" xml:space="preserve">
<style type="text/css">
	.st0{fill:#007DD0;}
</style>
<g>
	<path class="st0" d="M207,472.4H97.7c-25.2,0-45.6-20.4-45.6-45.6V64.1c0-25.2,20.4-45.6,45.6-45.6h265.2
		c25.2,0,45.6,20.4,45.6,45.6V213c0,3.9-3.1,7-7,7l0,0c-3.9,0-7-3.1-7-7V64.1c0-17.4-14.1-31.6-31.6-31.6H97.7
		c-17.4,0-31.6,14.1-31.6,31.6v362.7c0,17.4,14.1,31.6,31.6,31.6H207c3.8,0,7,3.1,7,6.9l0,0C214.1,469.2,210.9,472.4,207,472.4z"/>
</g>
<g>
	<g>
		<path class="st0" d="M425.7,361h-14v-21.1c0-24.3-19.7-44-44-44s-44,19.7-44,44V361h-14c-10.5,0-19,8.5-19,19v88.3
			c0,10.5,8.5,19,19,19h116c10.5,0,19-8.5,19-19V380C444.7,369.5,436.2,361,425.7,361z M337.8,339.9c0-16.5,13.5-30,30-30
			s30,13.5,30,30v20.7h-60V339.9z M430.7,468.3c0,2.8-2.2,5-5,5h-116c-2.8,0-5-2.2-5-5V380c0-2.8,2.2-5,5-5h116c2.8,0,5,2.2,5,5
			V468.3z"/>
	</g>
</g>
</svg>
