<?xml version="1.0" encoding="utf-8"?>
<!-- Generator: Adobe Illustrator 23.0.3, SVG Export Plug-In . SVG Version: 6.00 Build 0)  -->
<svg version="1.1" id="Layer_1" xmlns="http://www.w3.org/2000/svg" xmlns:xlink="http://www.w3.org/1999/xlink" x="0px" y="0px"
	 viewBox="0 0 512 512" style="enable-background:new 0 0 512 512;" xml:space="preserve">
<style type="text/css">
	.st0{fill:#007DD0;}
</style>
<title>KITE</title>
<path class="st0" d="M445.9,423.8C445.9,423.8,445.9,423.8,445.9,423.8c-10.7-35.2-34.1-58.9-65.7-66.8
	c-29.7-7.4-63.4,0.3-81.9,18.8c-15.3,16.6-39.5,21.7-60.2,12.6l44.5-227.6c0-0.2,0-0.5,0-0.7c1-2.2,0.3-4.9-1.8-6.3L136,57.7
	c-2.3-1.5-5.4-0.9-6.9,1.4c-0.2,0.3-0.3,0.5-0.4,0.8L61,220c-0.8,1.8-0.4,3.8,0.9,5.3c0.2,0.2,0.5,0.4,0.8,0.6
	c0.1,0.2,0.3,0.5,0.5,0.7l165.7,168.2c0.4,0.2,0.8,0.5,1.1,0.8c25.2,13,55.8,7.8,75.4-12.6c13.7-13.6,43-23.6,72.4-16.2
	c19.9,5,46.1,19.4,58.5,60c0.8,2.6,3.6,4.1,6.2,3.3c0,0,0,0,0,0v0C445.2,429.3,446.7,426.5,445.9,423.8z M229.7,378.1L74.3,220.9
	l62.5-146.6l134.3,88.1L229.7,378.1z"/>
</svg>
