<?xml version="1.0" encoding="utf-8"?>
<!-- Generator: Adobe Illustrator 23.0.3, SVG Export Plug-In . SVG Version: 6.00 Build 0)  -->
<svg version="1.1" id="Слой_1" xmlns="http://www.w3.org/2000/svg" xmlns:xlink="http://www.w3.org/1999/xlink" x="0px" y="0px"
	 viewBox="0 0 597.3 597.3" style="enable-background:new 0 0 597.3 597.3;" xml:space="preserve">
<style type="text/css">
	.st0{fill:#007DD0;}
</style>
<path class="st0" d="M148,308h209.1h36.7H448c71.8,0,130-58.2,130-130S519.8,48,448,48h-65h-21.4H118v20h243.6H383h65
	c60.8,0,110,49.2,110,110s-49.2,110-110,110h-54.2h-36.7H148c-71.8,0-130,58.2-130,130s58.2,130,130,130h59.3H228h250v-20H228h-20.7
	H148c-60.8,0-110-49.2-110-110S87.2,308,148,308z"/>
</svg>
