<?xml version="1.0" encoding="utf-8"?>
<!-- Generator: Adobe Illustrator 23.0.3, SVG Export Plug-In . SVG Version: 6.00 Build 0)  -->
<svg version="1.1" id="Слой_1" xmlns="http://www.w3.org/2000/svg" xmlns:xlink="http://www.w3.org/1999/xlink" x="0px" y="0px"
	 viewBox="0 0 512 512" style="enable-background:new 0 0 512 512;" xml:space="preserve">
<style type="text/css">
	.st0{fill:#588CCA;}
</style>
<path class="st0" d="M383,276.3H10.6c-3.2,0-5.9-2.5-5.9-5.6s2.6-5.6,5.9-5.6H383c3.2,0,5.9,2.5,5.9,5.6S386.3,276.3,383,276.3z"/>
<path class="st0" d="M350.3,398.8c-1.5,0-3.1-0.5-4.2-1.4c-2.3-1.9-2.3-5,0-6.9l145.3-119.7L346.1,151.1c-2.3-1.9-2.3-5,0-6.9
	c2.3-1.9,6.1-1.9,8.4,0l149.5,123.1c1.1,0.9,1.7,2.2,1.7,3.5c0,1.3-0.6,2.6-1.7,3.5L354.5,397.4
	C353.4,398.3,351.9,398.8,350.3,398.8z"/>
</svg>
